<svg data-name="Icons / Navigation icon (12 states)" xmlns="http://www.w3.org/2000/svg" width="21.203" height="20.301" viewBox="0 0 21.203 20.301">
    <path data-name="Path 383" d="M0 0h21.2v20.3H0z" style="fill:none"/>
    <path data-name="Path 4526" d="M1.767 0h10.6a1.731 1.731 0 0 1 1.767 1.692v10.15a1.731 1.731 0 0 1-1.767 1.692h-10.6A1.731 1.731 0 0 1 0 11.842V1.692A1.731 1.731 0 0 1 1.767 0z" transform="translate(3.534 4.229)" style="stroke-linecap:round;stroke-width:2px;stroke:#7c90a8;fill:none"/>
    <path data-name="Line 18" transform="translate(14 3)" style="stroke:#99a0c1;stroke-linejoin:round;stroke-linecap:round;stroke-width:2px;fill:none" d="M0 0v3"/>
    <path data-name="Line 19" transform="translate(7 3)" style="stroke:#99a0c1;stroke-linejoin:round;stroke-linecap:round;stroke-width:2px;fill:none" d="M0 0v3"/>
    <path data-name="Line 20" transform="translate(4 9)" style="stroke:#99a0c1;stroke-linejoin:round;stroke-linecap:round;stroke-width:2px;fill:none" d="M0 0h14"/>
    <path data-name="Line 21" transform="translate(9 14)" style="stroke:#99a0c1;stroke-linejoin:round;stroke-linecap:round;stroke-width:2px;fill:none" d="M0 0h3"/>
</svg>
