<svg xmlns="http://www.w3.org/2000/svg" width="124" height="124.5" viewBox="0 0 124 124.5">
    <defs>
        <filter id="rdwmx5d6ha" x="0" y="0" width="124" height="124.5" filterUnits="userSpaceOnUse">
            <feOffset dy="2"/>
            <feGaussianBlur stdDeviation=".5" result="blur"/>
            <feFlood flood-opacity=".161"/>
            <feComposite operator="in" in2="blur"/>
            <feComposite in="SourceGraphic"/>
        </filter>
    </defs>
    <g data-name="Group 4808">
        <g style="filter:url(#rdwmx5d6ha)">
            <circle data-name="Ellipse 44" cx="60.5" cy="60.5" r="60.5" transform="translate(1.5 .002)" style="fill:#d3eafd"/>
        </g>
        <path data-name="Path 4530" d="m290.965 257.348-13.273 12.015v-12.015zm0 0" transform="translate(-204.19 -189.281)" style="fill:#d1b288"/>
        <path data-name="Path 4531" d="M264.007 0 218.2 50.309v12.015l-14.454-12.015zm0 0" transform="translate(-144.701 17.758)" style="fill:#eaca9b"/>
        <path data-name="Path 4532" d="m164.584 0-60.26 50.309H80.746a.58.58 0 0 1-.293-1.081zm0 0" transform="translate(-45.278 17.758)" style="fill:#ffe8c2"/>
        <path data-name="Path 4533" d="M91.666 47.139a.58.58 0 0 1-.293-1.081l60.321-35.3L164.585 0l-84.13 49.227a.58.58 0 0 0 .292 1.081h23.579l3.8-3.17zm0 0" transform="translate(-45.28 17.758)" style="fill:#f4dab5"/>
        <path data-name="Path 4534" d="m323.5 0-11.128 49.683a.8.8 0 0 1-.78.625h-33.9zm0 0" transform="translate(-204.19 17.758)" style="fill:#ffe8c2"/>
        <g data-name="Group 4807">
            <path data-name="Path 4535" d="M374.645 401.448a2.8 2.8 0 0 1-.371 5.585H354.63a2.807 2.807 0 0 1 0-5.613h1.649a5.052 5.052 0 1 1 9.05 0h1.836a3.741 3.741 0 0 1 7.483 0c0 .01-.003.018-.003.028zm0 0" transform="translate(-263.831 -299.319)" style="fill:#64d3ff"/>
            <path data-name="Path 4536" d="M61.17 40.848a3.763 3.763 0 0 1-.5 7.493H34.316a3.765 3.765 0 1 1 0-7.529h2.211a6.777 6.777 0 1 1 12.142 0h2.463a5.02 5.02 0 0 1 10.04 0l-.002.036zm0 0" transform="translate(-5.363 -7.2)" style="fill:#64d3ff"/>
            <path data-name="Path 4537" d="M22.822 329.226a2.8 2.8 0 0 1-.371 5.585H2.806a2.807 2.807 0 0 1 0-5.613h1.65a5.051 5.051 0 1 1 9.05 0h1.835a3.741 3.741 0 0 1 7.483 0l-.002.028zm0 0" transform="translate(19.215 -241.216)" style="fill:#64d3ff"/>
        </g>
        <path data-name="Path 4538" d="M356.865 405.561a2.975 2.975 0 0 1 2.854-2.025 1.063 1.063 0 0 0 1.049-1.261 5.054 5.054 0 0 1 4.187-5.976 5.051 5.051 0 0 0-8.677 5.12h-1.568a2.86 2.86 0 0 0-2.884 2.67 2.806 2.806 0 0 0 2.8 2.943h2.2a2.631 2.631 0 0 1 .039-1.471zm0 0" transform="translate(-263.83 -299.319)" style="fill:#34bfea"/>
        <path data-name="Path 4539" d="M35.5 46.233a3.836 3.836 0 0 1 3.838-3.3 1.535 1.535 0 0 0 1.512-1.806 6.779 6.779 0 0 1 6.667-7.982 6.776 6.776 0 0 0-10.99 7.671h-2.12a3.825 3.825 0 0 0-3.853 3.63 3.764 3.764 0 0 0 3.763 3.9h1.538a3.739 3.739 0 0 1-.355-2.113zm0 0" transform="translate(-5.363 -7.201)" style="fill:#34bfea"/>
        <path data-name="Path 4540" d="M5.042 333.339a2.973 2.973 0 0 1 2.853-2.024 1.063 1.063 0 0 0 1.049-1.262 5.058 5.058 0 0 1 4.187-5.976 5.05 5.05 0 0 0-8.676 5.12H2.886A2.861 2.861 0 0 0 0 331.866a2.807 2.807 0 0 0 2.8 2.944H5a2.627 2.627 0 0 1 .042-1.471zm0 0" transform="translate(19.216 -241.215)" style="fill:#34bfea"/>
    </g>
</svg>
