<svg xmlns="http://www.w3.org/2000/svg" width="180.9" height="32.28" viewBox="0 0 180.9 32.28">
    <path data-name="Path 1" d="m10.95-5.16-5.22-15.9H.27L7.74 0h6.42l7.47-21.06H16.2zM23.76 0h5.13v-16.74h-5.13zm2.58-18.48a2.824 2.824 0 0 0 3.03-2.76 2.829 2.829 0 0 0-3.03-2.79 2.838 2.838 0 0 0-3.06 2.79 2.833 2.833 0 0 0 3.06 2.76zM31.59-8.4c0 5.28 3.27 8.64 7.38 8.64a5.79 5.79 0 0 0 5.16-2.64V0h5.13v-22.2h-5.13v7.77a6.145 6.145 0 0 0-5.16-2.55c-4.11 0-7.38 3.3-7.38 8.58zm12.54.03c0 2.67-1.71 4.14-3.66 4.14-1.92 0-3.66-1.5-3.66-4.17s1.74-4.11 3.66-4.11c1.95 0 3.66 1.47 3.66 4.14zm16.23-4.5a2.894 2.894 0 0 1 3.15 2.88h-6.42a3.173 3.173 0 0 1 3.27-2.88zm8.01 7.32h-5.46a2.728 2.728 0 0 1-2.67 1.62c-1.65 0-3-1.02-3.18-3.21h11.61a12.964 12.964 0 0 0 .09-1.5c0-5.1-3.45-8.34-8.34-8.34-4.98 0-8.46 3.3-8.46 8.61S55.5.24 60.42.24a7.824 7.824 0 0 0 7.95-5.79zm19.47-2.82c0-5.31-3.78-8.61-8.7-8.61-4.89 0-8.7 3.3-8.7 8.61S74.16.24 79.08.24s8.76-3.3 8.76-8.61zm-12.18 0c0-2.85 1.62-4.17 3.48-4.17 1.8 0 3.48 1.32 3.48 4.17 0 2.82-1.71 4.17-3.54 4.17-1.86 0-3.42-1.35-3.42-4.17zm13.89-.03c0 5.28 3.27 8.64 7.38 8.64a5.921 5.921 0 0 0 5.16-2.64v2.37c0 2.82-1.53 3.84-3.48 3.84-1.77 0-3.03-.81-3.36-2.07h-5.07c.45 3.99 3.69 6.51 8.67 6.51 5.79 0 8.37-3.81 8.37-8.28v-16.71h-5.13v2.37a5.8 5.8 0 0 0-5.16-2.61c-4.11 0-7.38 3.3-7.38 8.58zm12.54.03c0 2.67-1.71 4.14-3.66 4.14-1.92 0-3.66-1.5-3.66-4.17s1.74-4.11 3.66-4.11c1.95 0 3.66 1.47 3.66 4.14zm13.98.6c0-2.88 1.41-3.72 3.84-3.72h1.41v-5.43a6.24 6.24 0 0 0-5.25 2.97v-2.79h-5.13V0h5.13zm6.69-.63c0 5.28 3.27 8.64 7.35 8.64a5.919 5.919 0 0 0 5.19-2.61V0h5.13v-16.74h-5.13v2.37a5.827 5.827 0 0 0-5.16-2.61c-4.11 0-7.38 3.3-7.38 8.58zm12.54.03c0 2.67-1.71 4.14-3.66 4.14-1.92 0-3.66-1.5-3.66-4.17s1.74-4.11 3.66-4.11c1.95 0 3.66 1.47 3.66 4.14zm13.98-6v-2.37h-5.13V7.98h5.13V-2.34a6.021 6.021 0 0 0 5.16 2.58c4.11 0 7.38-3.36 7.38-8.64s-3.27-8.58-7.38-8.58a5.9 5.9 0 0 0-5.16 2.61zm7.32 5.97c0 2.67-1.74 4.17-3.69 4.17-1.92 0-3.66-1.47-3.66-4.14s1.74-4.14 3.66-4.14c1.95 0 3.69 1.44 3.69 4.11zm7.92 8.4h5.13v-9.09c0-2.28 1.26-3.54 3.21-3.54s3.21 1.26 3.21 3.54V0h5.1v-9.78c0-4.5-2.55-7.14-6.36-7.14a6.174 6.174 0 0 0-5.16 2.43v-7.71h-5.13z" transform="translate(-.27 24.03)" style="fill:#fff"/>
</svg>
